<svg width="400" height="400" viewBox="0 0 400 400" fill="none" xmlns="http://www.w3.org/2000/svg">
<circle cx="200" cy="200" r="199.5" fill="#D8F7E2" stroke="black"/>
<path d="M146.418 23L40.7046 151.264L197.16 335.909L301.463 213.283L146.418 23Z" fill="#63BCFF"/>
<path opacity="0.1" d="M146.418 23L40.7046 151.264L197.16 335.909L301.463 213.283L146.418 23Z" fill="#747FE8"/>
<path d="M44.9332 152.674C47.2715 148.465 50.1712 144.593 53.5524 141.166L150.646 42.7328C150.646 42.7328 184.474 37.0948 191.522 54.0088L67.4853 155.493L44.9332 152.674Z" fill="#F2F2F2"/>
<path d="M40 150.56L183.769 370.442C183.769 370.442 197.864 380.309 211.959 374.671L359.252 275.301L202.798 38.5042L61.8473 148.445L40 150.56Z" fill="#747FE8"/>
<path d="M185.221 72.8191L95.0051 137.646L96.3381 139.501L186.554 74.6741L185.221 72.8191Z" fill="#3F3D56"/>
<path d="M93.8092 161.91L91.9038 163.17L210.302 342.178L212.208 340.917L93.8092 161.91Z" fill="#3F3D56"/>
<path d="M320.508 275.776L224.683 346.279L226.037 348.12L321.862 277.616L320.508 275.776Z" fill="#3F3D56"/>
<path d="M202.326 75.9087L200.451 77.2133L323.078 253.401L324.952 252.096L202.326 75.9087Z" fill="#3F3D56"/>
<path d="M164.448 41.3355L52.9141 143.698L53.8666 144.736L165.4 42.3733L164.448 41.3355Z" fill="#3F3D56"/>
<path d="M173.739 42.2129L57.1716 145.12L58.1049 146.177L174.672 43.2701L173.739 42.2129Z" fill="#3F3D56"/>
<path d="M181.03 44.2639L60.0231 145.129L60.926 146.212L181.933 45.3472L181.03 44.2639Z" fill="#3F3D56"/>
</svg>
