<svg width="285" height="206" viewBox="0 0 285 206" fill="none" xmlns="http://www.w3.org/2000/svg">
<defs>
<linearGradient id="paint0_linear" x1="83.3632" y1="153.914" x2="95.1292" y2="130.237" gradientUnits="userSpaceOnUse">
<stop stop-color="#808080" stop-opacity="0.25"/>
<stop offset="0.53514" stop-color="#808080" stop-opacity="0.12"/>
<stop offset="1" stop-color="#808080" stop-opacity="0.1"/>
</linearGradient>
</defs>
<path d="M12.3512 103.864C15.438 97.6336 17.1839 92.2067 16.2507 91.743C15.3175 91.2793 12.0587 95.9543 8.97187 102.185C5.88509 108.416 4.13925 113.843 5.07244 114.307C6.00562 114.77 9.26445 110.095 12.3512 103.864Z" fill="#E0E0E0"/>
<path d="M168.937 181.751C172.024 175.52 174.012 170.213 173.378 169.898C172.744 169.583 169.728 174.379 166.641 180.61C163.554 186.84 161.566 192.147 162.2 192.462C162.834 192.777 165.85 187.981 168.937 181.751Z" fill="#E0E0E0"/>
<path d="M84.7921 150.252L78.9742 145.441L62.961 164.863L68.7789 169.675L84.7921 150.252Z" fill="#F55F44"/>
<path opacity="0.05" d="M71.4132 171.224L79.6772 173.17L85.4334 148.65L77.1695 146.704L71.4132 171.224Z" fill="black"/>
<path d="M72.3325 171.441L79.6772 173.17L85.4335 148.65L78.0888 146.921L72.3325 171.441Z" fill="#F55F44"/>
<path d="M16.5301 91.1789L4.79298 114.871L161.933 192.958L173.67 169.266L16.5301 91.1789Z" fill="url(#paint0_linear)"/>
<path d="M162.213 192.394C159.137 190.917 2.81953 113.187 5.07244 114.307C13.7485 101.044 16.2507 91.743 16.2507 91.743L173.391 169.831C173.391 169.831 167.873 179.53 162.213 192.394Z" fill="#F5F5F5"/>
<path opacity="0.05" d="M97.9186 132.326L84.9644 125.889L73.7861 148.452L86.7404 154.89L97.9186 132.326Z" fill="black"/>
<path d="M97.3554 132.046L85.5277 126.169L74.3494 148.732L86.1772 154.61L97.3554 132.046Z" fill="#F55F44"/>
<path opacity="0.05" d="M95.1025 130.927L87.2173 127.008L76.0391 149.572L83.9243 153.49L95.1025 130.927Z" fill="black"/>
<path d="M94.5393 130.647L87.7805 127.288L76.6023 149.852L83.361 153.21L94.5393 130.647Z" fill="#F55F44"/>
<path d="M93.6292 203.421C94.2081 203.421 94.6775 202.951 94.6775 202.371C94.6775 201.791 94.2081 201.321 93.6292 201.321C93.0502 201.321 92.5808 201.791 92.5808 202.371C92.5808 202.951 93.0502 203.421 93.6292 203.421Z" fill="#DBDBDB"/>
<g opacity="0.5">
<path opacity="0.5" d="M11.6073 172.971H10.5324V179.072H11.6073V172.971Z" fill="#47E6B1"/>
<path opacity="0.5" d="M14.1155 176.56V175.483H8.02416V176.56H14.1155Z" fill="#47E6B1"/>
</g>
<g opacity="0.5">
<path opacity="0.5" d="M282.492 96.8925H281.417V102.993H282.492V96.8925Z" fill="#47E6B1"/>
<path opacity="0.5" d="M285 100.481V99.4045H278.909V100.481H285Z" fill="#47E6B1"/>
</g>
<g opacity="0.5">
<path opacity="0.5" d="M18.0569 21.1728H16.982V27.2735H18.0569V21.1728Z" fill="#47E6B1"/>
<path opacity="0.5" d="M20.5651 24.7614V23.6848H14.4738V24.7614H20.5651Z" fill="#47E6B1"/>
</g>
<g opacity="0.5">
<path opacity="0.5" d="M250.244 11.8424H249.169V17.943H250.244V11.8424Z" fill="#47E6B1"/>
<path opacity="0.5" d="M252.752 15.431V14.3544H246.661V15.431H252.752Z" fill="#47E6B1"/>
</g>
<path opacity="0.5" d="M4.40354 90.9557C4.10731 90.8264 3.86886 90.5927 3.73358 90.2988C3.5983 90.0049 3.57564 89.6715 3.6699 89.362C3.68516 89.3145 3.69477 89.2654 3.69853 89.2157C3.70715 89.0739 3.66994 88.9331 3.5924 88.8141C3.51486 88.6951 3.40112 88.6043 3.26803 88.5552C3.13494 88.506 2.98958 88.5011 2.85347 88.5411C2.71736 88.5812 2.59776 88.664 2.51236 88.7775C2.48299 88.8177 2.45847 88.8613 2.4393 88.9073C2.31028 89.204 2.07685 89.4428 1.78343 89.5783C1.49 89.7138 1.15708 89.7365 0.848032 89.6421C0.800652 89.6268 0.751635 89.6172 0.702003 89.6134C0.560409 89.6048 0.419805 89.642 0.301017 89.7197C0.182229 89.7974 0.0915742 89.9113 0.0424791 90.0446C-0.00661602 90.1779 -0.0115384 90.3234 0.0284387 90.4597C0.0684159 90.5961 0.151165 90.7159 0.264434 90.8014C0.304623 90.8308 0.348137 90.8554 0.394072 90.8746C0.690302 91.0038 0.928754 91.2376 1.06403 91.5314C1.19931 91.8253 1.22198 92.1587 1.12771 92.4682C1.11246 92.5157 1.10285 92.5648 1.09908 92.6145C1.09046 92.7563 1.12768 92.8971 1.20522 93.0161C1.28276 93.1351 1.39649 93.2259 1.52958 93.275C1.66267 93.3242 1.80804 93.3291 1.94415 93.2891C2.08025 93.2491 2.19986 93.1662 2.28526 93.0527C2.31463 93.0125 2.33915 92.9689 2.35832 92.9229C2.48733 92.6262 2.72077 92.3874 3.01419 92.2519C3.30761 92.1164 3.64054 92.0937 3.94958 92.1881C3.99697 92.2034 4.04598 92.213 4.09561 92.2168C4.23721 92.2254 4.37782 92.1882 4.49661 92.1105C4.6154 92.0329 4.70605 91.919 4.75515 91.7857C4.80424 91.6524 4.80917 91.5068 4.76919 91.3705C4.72921 91.2342 4.64645 91.1144 4.53318 91.0288C4.49299 90.9994 4.44948 90.9749 4.40354 90.9557Z" fill="#4D8AF0"/>
<path opacity="0.5" d="M66.0334 20.26C65.7371 20.1308 65.4987 19.897 65.3634 19.6031C65.2281 19.3092 65.2055 18.9758 65.2997 18.6663C65.315 18.6188 65.3246 18.5697 65.3283 18.52C65.337 18.3782 65.2998 18.2374 65.2222 18.1184C65.1447 17.9994 65.0309 17.9086 64.8978 17.8595C64.7648 17.8103 64.6194 17.8054 64.4833 17.8454C64.3472 17.8854 64.2276 17.9683 64.1422 18.0818C64.1128 18.122 64.0883 18.1656 64.0691 18.2116C63.9401 18.5083 63.7067 18.7471 63.4132 18.8826C63.1198 19.0181 62.7869 19.0408 62.4778 18.9464C62.4305 18.9311 62.3815 18.9215 62.3318 18.9177C62.1902 18.9091 62.0496 18.9463 61.9308 19.024C61.812 19.1017 61.7214 19.2156 61.6723 19.3489C61.6232 19.4822 61.6183 19.6277 61.6582 19.7641C61.6982 19.9004 61.781 20.0202 61.8943 20.1057C61.9344 20.1351 61.9779 20.1597 62.0239 20.1789C62.3201 20.3081 62.5586 20.5419 62.6938 20.8357C62.8291 21.1296 62.8518 21.463 62.7575 21.7726C62.7423 21.82 62.7327 21.8691 62.7289 21.9188C62.7203 22.0606 62.7575 22.2014 62.835 22.3204C62.9126 22.4394 63.0263 22.5302 63.1594 22.5794C63.2925 22.6285 63.4378 22.6335 63.574 22.5934C63.7101 22.5534 63.8297 22.4705 63.9151 22.3571C63.9444 22.3168 63.969 22.2732 63.9881 22.2272C64.1171 21.9305 64.3506 21.6917 64.644 21.5562C64.9374 21.4207 65.2704 21.398 65.5794 21.4925C65.6268 21.5077 65.6758 21.5174 65.7254 21.5211C65.867 21.5298 66.0076 21.4925 66.1264 21.4148C66.2452 21.3372 66.3359 21.2233 66.385 21.09C66.4341 20.9567 66.439 20.8111 66.399 20.6748C66.359 20.5385 66.2763 20.4187 66.163 20.3331C66.1228 20.3037 66.0793 20.2792 66.0334 20.26Z" fill="#4D8AF0"/>
<path opacity="0.5" d="M141.279 203.638C140.983 203.509 140.744 203.275 140.609 202.981C140.474 202.687 140.451 202.354 140.545 202.044C140.561 201.997 140.57 201.948 140.574 201.898C140.583 201.756 140.545 201.615 140.468 201.497C140.39 201.378 140.277 201.287 140.144 201.238C140.01 201.188 139.865 201.183 139.729 201.224C139.593 201.264 139.473 201.346 139.388 201.46C139.359 201.5 139.334 201.544 139.315 201.59C139.186 201.886 138.952 202.125 138.659 202.261C138.366 202.396 138.033 202.419 137.724 202.324C137.676 202.309 137.627 202.3 137.578 202.296C137.436 202.287 137.295 202.324 137.177 202.402C137.058 202.48 136.967 202.594 136.918 202.727C136.869 202.86 136.864 203.006 136.904 203.142C136.944 203.278 137.027 203.398 137.14 203.484C137.18 203.513 137.224 203.538 137.27 203.557C137.566 203.686 137.804 203.92 137.94 204.214C138.075 204.508 138.097 204.841 138.003 205.151C137.988 205.198 137.978 205.247 137.975 205.297C137.966 205.439 138.003 205.58 138.081 205.699C138.158 205.818 138.272 205.908 138.405 205.957C138.538 206.007 138.684 206.012 138.82 205.972C138.956 205.932 139.075 205.849 139.161 205.735C139.19 205.695 139.215 205.651 139.234 205.605C139.363 205.309 139.596 205.07 139.89 204.934C140.183 204.799 140.516 204.776 140.825 204.871C140.872 204.886 140.922 204.895 140.971 204.899C141.113 204.908 141.253 204.871 141.372 204.793C141.491 204.715 141.582 204.601 141.631 204.468C141.68 204.335 141.685 204.189 141.645 204.053C141.605 203.917 141.522 203.797 141.409 203.711C141.369 203.682 141.325 203.657 141.279 203.638Z" fill="#4D8AF0"/>
<path opacity="0.5" d="M272.101 161.488C273.288 161.488 274.251 160.524 274.251 159.334C274.251 158.145 273.288 157.181 272.101 157.181C270.913 157.181 269.951 158.145 269.951 159.334C269.951 160.524 270.913 161.488 272.101 161.488Z" fill="#F55F44"/>
<path opacity="0.5" d="M224.803 175.124C225.991 175.124 226.953 174.16 226.953 172.971C226.953 171.782 225.991 170.818 224.803 170.818C223.616 170.818 222.654 171.782 222.654 172.971C222.654 174.16 223.616 175.124 224.803 175.124Z" fill="#4D8AF0"/>
<path opacity="0.5" d="M37.0475 196.297C38.2349 196.297 39.1974 195.333 39.1974 194.144C39.1974 192.955 38.2349 191.991 37.0475 191.991C35.8602 191.991 34.8976 192.955 34.8976 194.144C34.8976 195.333 35.8602 196.297 37.0475 196.297Z" fill="#47E6B1"/>
<path opacity="0.5" d="M147.408 4.30633C148.595 4.30633 149.558 3.34233 149.558 2.15317C149.558 0.964006 148.595 0 147.408 0C146.221 0 145.258 0.964006 145.258 2.15317C145.258 3.34233 146.221 4.30633 147.408 4.30633Z" fill="#F55F44"/>
<path d="M73.4163 128.293L64.8168 141.212C64.8168 141.212 67.6832 154.49 131.105 154.131C194.526 153.772 199.542 141.212 199.542 141.212L187.718 123.987L151.528 99.2251L73.4163 128.293Z" fill="#D8F6E2"/>
<path opacity="0.15" d="M73.4163 128.293L64.8168 141.212C64.8168 141.212 67.6832 154.49 131.105 154.131C194.526 153.772 199.542 141.212 199.542 141.212L187.718 123.987L151.528 99.2251L73.4163 128.293Z" fill="black"/>
<path d="M256.335 80.3849L143.466 130.267L5.87419 80.3849L132 22.9671L193.913 51.5576L196.131 52.584L256.335 80.3849Z" fill="#D8F6E2"/>
<path opacity="0.15" d="M256.335 80.3849L143.466 130.267L5.87419 80.3849L132 22.9671L193.913 51.5576L196.131 52.584L256.335 80.3849Z" fill="black"/>
<path d="M198.467 92.3422L196.317 92.4714L193.913 51.5576L196.131 52.584L198.467 92.3422Z" fill="#F5F5F5"/>
<path d="M74.8495 80.2055L64.8168 141.212C64.8168 141.212 136.838 117.886 199.542 141.212L190.226 76.6169C190.226 76.6169 106.023 66.2099 74.8495 80.2055Z" fill="#D8F6E2"/>
<path d="M198.288 104.788C204.027 104.788 208.679 101.574 208.679 97.6103C208.679 93.6464 204.027 90.433 198.288 90.433C192.549 90.433 187.897 93.6464 187.897 97.6103C187.897 101.574 192.549 104.788 198.288 104.788Z" fill="#F5F5F5"/>
</svg>
